<mxfile host="app.diagrams.net" agent="Mozilla/5.0 (Windows NT 10.0; Win64; x64) AppleWebKit/537.36 (KHTML, like Gecko) Chrome/137.0.0.0 Safari/537.36" version="27.2.0">
  <diagram name="Página-1" id="8ktKUjLuSopr6MbcSvIK">
    <mxGraphModel dx="872" dy="483" grid="1" gridSize="10" guides="1" tooltips="1" connect="1" arrows="1" fold="1" page="1" pageScale="1" pageWidth="827" pageHeight="1169" math="0" shadow="0">
      <root>
        <mxCell id="0" />
        <mxCell id="1" parent="0" />
        <mxCell id="9P4Px6e0LPDuhDFU_HL_-1" value="" style="rounded=0;whiteSpace=wrap;html=1;" parent="1" vertex="1">
          <mxGeometry x="30" y="60" width="710" height="1020" as="geometry" />
        </mxCell>
        <mxCell id="9P4Px6e0LPDuhDFU_HL_-4" value="" style="rounded=0;whiteSpace=wrap;html=1;fillColor=#E6E6E6;" parent="1" vertex="1">
          <mxGeometry x="30" y="60" width="710" height="120" as="geometry" />
        </mxCell>
        <mxCell id="RnOGg_c4IMyRPbAZXwW1-4" value="" style="rounded=0;whiteSpace=wrap;html=1;" parent="1" vertex="1">
          <mxGeometry x="30" y="20" width="710" height="40" as="geometry" />
        </mxCell>
        <mxCell id="RnOGg_c4IMyRPbAZXwW1-5" value="Bepc." style="text;html=1;align=center;verticalAlign=middle;whiteSpace=wrap;rounded=0;fontStyle=1;fontSize=16;" parent="1" vertex="1">
          <mxGeometry x="50" y="25" width="60" height="30" as="geometry" />
        </mxCell>
        <mxCell id="RnOGg_c4IMyRPbAZXwW1-6" value="Iníco&amp;nbsp; &amp;nbsp; Categorias&amp;nbsp; &amp;nbsp;&amp;nbsp;Cursos&amp;nbsp; &amp;nbsp;&amp;nbsp;Níveis" style="text;html=1;align=left;verticalAlign=middle;whiteSpace=wrap;rounded=0;" parent="1" vertex="1">
          <mxGeometry x="140" y="25" width="250" height="30" as="geometry" />
        </mxCell>
        <mxCell id="RnOGg_c4IMyRPbAZXwW1-7" value="Buscar..." style="rounded=1;whiteSpace=wrap;html=1;fontStyle=2;fontColor=#999999;" parent="1" vertex="1">
          <mxGeometry x="440" y="27.5" width="146" height="25" as="geometry" />
        </mxCell>
        <mxCell id="RnOGg_c4IMyRPbAZXwW1-8" value="+ Criar Aula" style="rounded=1;whiteSpace=wrap;html=1;fillColor=light-dark(#8b8989, #ededed);" parent="1" vertex="1">
          <mxGeometry x="601" y="28" width="80" height="22.5" as="geometry" />
        </mxCell>
        <mxCell id="RnOGg_c4IMyRPbAZXwW1-9" value="" style="rounded=1;whiteSpace=wrap;html=1;fillColor=light-dark(#FFFFFF,#EDEDED);" parent="1" vertex="1">
          <mxGeometry x="690" y="27.75" width="40" height="22.5" as="geometry" />
        </mxCell>
        <mxCell id="RnOGg_c4IMyRPbAZXwW1-66" value="" style="rounded=0;whiteSpace=wrap;html=1;fillColor=#CCCCCC;" parent="1" vertex="1">
          <mxGeometry x="30" y="1080" width="710" height="140" as="geometry" />
        </mxCell>
        <mxCell id="RnOGg_c4IMyRPbAZXwW1-67" value="Bepc." style="text;html=1;align=center;verticalAlign=middle;whiteSpace=wrap;rounded=0;fontStyle=1;fontSize=25;" parent="1" vertex="1">
          <mxGeometry x="90" y="1130" width="120" height="45" as="geometry" />
        </mxCell>
        <mxCell id="RnOGg_c4IMyRPbAZXwW1-68" value="Informações da Instituição" style="text;html=1;align=left;verticalAlign=middle;whiteSpace=wrap;rounded=0;fontStyle=1;fontSize=15;" parent="1" vertex="1">
          <mxGeometry x="390" y="1100" width="280" height="30" as="geometry" />
        </mxCell>
        <mxCell id="RnOGg_c4IMyRPbAZXwW1-69" value="Lorem ipsum dolor sit amet, consectetur adipiscing elit. Donec fermentum neque vel dui euismod scelerisque. Vestibulum eu odio sed velit fermentum bibendum eget id lorem. Fusce molestie, purus tempus ultricies congue, diam massa aliquam orci, in egestas nisi tellus in sem. Phasellus volutpat aliquam augue ac finibus. Pellentesque porttitor nunc sit amet mauris scelerisque pretium. Donec euismod ipsum vitae turpis molestie gravida. Vivamus id velit risus. Aenean mollis vel leo eu suscipit." style="text;html=1;align=left;verticalAlign=middle;whiteSpace=wrap;rounded=0;fontSize=8;" parent="1" vertex="1">
          <mxGeometry x="390" y="1130" width="280" height="75" as="geometry" />
        </mxCell>
        <mxCell id="RnOGg_c4IMyRPbAZXwW1-70" value="© Copyright 2025 - Instituição de Ensino.&amp;nbsp;&lt;div&gt;Todos os direitos reservados&lt;/div&gt;" style="rounded=0;whiteSpace=wrap;html=1;fontSize=10;" parent="1" vertex="1">
          <mxGeometry x="30" y="1220" width="710" height="50" as="geometry" />
        </mxCell>
        <mxCell id="RnOGg_c4IMyRPbAZXwW1-76" value="" style="shape=image;html=1;verticalAlign=top;verticalLabelPosition=bottom;labelBackgroundColor=#ffffff;imageAspect=0;aspect=fixed;image=https://cdn0.iconfinder.com/data/icons/phosphor-regular-vol-4/256/shopping-cart-128.png;imageBackground=default;" parent="1" vertex="1">
          <mxGeometry x="700" y="30" width="20" height="20" as="geometry" />
        </mxCell>
        <mxCell id="9P4Px6e0LPDuhDFU_HL_-2" value="Carrinho Pedagógico" style="text;html=1;align=left;verticalAlign=middle;whiteSpace=wrap;rounded=0;fontStyle=1;fontSize=25;" parent="1" vertex="1">
          <mxGeometry x="60" y="80" width="290" height="40" as="geometry" />
        </mxCell>
        <mxCell id="9P4Px6e0LPDuhDFU_HL_-3" value="Vocês está logado como: Estevao Rada Oliveira (Docente)" style="text;html=1;align=left;verticalAlign=middle;whiteSpace=wrap;rounded=0;" parent="1" vertex="1">
          <mxGeometry x="60" y="120" width="330" height="30" as="geometry" />
        </mxCell>
        <mxCell id="kUsobKeIjvPVuaiuKJYA-1" value="Aulas adicionadas ao carrinho pedagógico" style="text;html=1;align=left;verticalAlign=middle;whiteSpace=wrap;rounded=0;fontStyle=1;fontSize=16;" vertex="1" parent="1">
          <mxGeometry x="60" y="220" width="340" height="30" as="geometry" />
        </mxCell>
        <mxCell id="kUsobKeIjvPVuaiuKJYA-8" value="" style="group" vertex="1" connectable="0" parent="1">
          <mxGeometry x="60" y="290" width="650" height="90" as="geometry" />
        </mxCell>
        <mxCell id="kUsobKeIjvPVuaiuKJYA-2" value="" style="rounded=0;whiteSpace=wrap;html=1;" vertex="1" parent="kUsobKeIjvPVuaiuKJYA-8">
          <mxGeometry width="650" height="90" as="geometry" />
        </mxCell>
        <mxCell id="kUsobKeIjvPVuaiuKJYA-3" value="#1" style="text;html=1;align=center;verticalAlign=middle;whiteSpace=wrap;rounded=0;" vertex="1" parent="kUsobKeIjvPVuaiuKJYA-8">
          <mxGeometry x="20" y="25" width="40" height="30" as="geometry" />
        </mxCell>
        <mxCell id="kUsobKeIjvPVuaiuKJYA-4" value="Algoritmos naturais" style="text;html=1;align=left;verticalAlign=middle;whiteSpace=wrap;rounded=0;fontStyle=1" vertex="1" parent="kUsobKeIjvPVuaiuKJYA-8">
          <mxGeometry x="90" width="170" height="30" as="geometry" />
        </mxCell>
        <mxCell id="kUsobKeIjvPVuaiuKJYA-5" value="Lorem ipsum dolor sit amet, consectetur adipiscing elit. Quisque vel tellus et sapien volutpat gravida in eleifend erat. Cras posuere luctus justo quis porta. Praesent rutrum vestibulum commodo. Vivamus eget ornare lacus, nec iaculis quam. Nulla viverra sapien quis magna congue tempor..." style="text;html=1;align=left;verticalAlign=middle;whiteSpace=wrap;rounded=0;fontSize=10;" vertex="1" parent="kUsobKeIjvPVuaiuKJYA-8">
          <mxGeometry x="90" y="30" width="510" height="30" as="geometry" />
        </mxCell>
        <mxCell id="kUsobKeIjvPVuaiuKJYA-6" value="Por: Paulo Sérgio de Sena" style="text;html=1;align=left;verticalAlign=middle;whiteSpace=wrap;rounded=0;fontSize=10;fontColor=#666666;" vertex="1" parent="kUsobKeIjvPVuaiuKJYA-8">
          <mxGeometry x="90" y="60" width="510" height="30" as="geometry" />
        </mxCell>
        <mxCell id="kUsobKeIjvPVuaiuKJYA-7" value="" style="html=1;verticalLabelPosition=bottom;labelBackgroundColor=#ffffff;verticalAlign=top;shadow=0;dashed=0;strokeWidth=2;shape=mxgraph.ios7.misc.delete;fillColor=#ff0000;strokeColor=#ffffff;sketch=0;" vertex="1" parent="kUsobKeIjvPVuaiuKJYA-8">
          <mxGeometry x="610" y="35" width="20" height="20" as="geometry" />
        </mxCell>
        <mxCell id="kUsobKeIjvPVuaiuKJYA-9" value="" style="group" vertex="1" connectable="0" parent="1">
          <mxGeometry x="60" y="380" width="650" height="90" as="geometry" />
        </mxCell>
        <mxCell id="kUsobKeIjvPVuaiuKJYA-10" value="" style="rounded=0;whiteSpace=wrap;html=1;" vertex="1" parent="kUsobKeIjvPVuaiuKJYA-9">
          <mxGeometry width="650" height="90" as="geometry" />
        </mxCell>
        <mxCell id="kUsobKeIjvPVuaiuKJYA-11" value="#2" style="text;html=1;align=center;verticalAlign=middle;whiteSpace=wrap;rounded=0;" vertex="1" parent="kUsobKeIjvPVuaiuKJYA-9">
          <mxGeometry x="20" y="25" width="40" height="30" as="geometry" />
        </mxCell>
        <mxCell id="kUsobKeIjvPVuaiuKJYA-12" value="Variáveis e operadores aritméticos" style="text;html=1;align=left;verticalAlign=middle;whiteSpace=wrap;rounded=0;fontStyle=1" vertex="1" parent="kUsobKeIjvPVuaiuKJYA-9">
          <mxGeometry x="90" width="250" height="30" as="geometry" />
        </mxCell>
        <mxCell id="kUsobKeIjvPVuaiuKJYA-13" value="Lorem ipsum dolor sit amet, consectetur adipiscing elit. Quisque vel tellus et sapien volutpat gravida in eleifend erat. Cras posuere luctus justo quis porta. Praesent rutrum vestibulum commodo. Vivamus eget ornare lacus, nec iaculis quam. Nulla viverra sapien quis magna congue tempor..." style="text;html=1;align=left;verticalAlign=middle;whiteSpace=wrap;rounded=0;fontSize=10;" vertex="1" parent="kUsobKeIjvPVuaiuKJYA-9">
          <mxGeometry x="90" y="30" width="510" height="30" as="geometry" />
        </mxCell>
        <mxCell id="kUsobKeIjvPVuaiuKJYA-14" value="Por: John Doe" style="text;html=1;align=left;verticalAlign=middle;whiteSpace=wrap;rounded=0;fontSize=10;fontColor=#666666;" vertex="1" parent="kUsobKeIjvPVuaiuKJYA-9">
          <mxGeometry x="90" y="60" width="510" height="30" as="geometry" />
        </mxCell>
        <mxCell id="kUsobKeIjvPVuaiuKJYA-15" value="" style="html=1;verticalLabelPosition=bottom;labelBackgroundColor=#ffffff;verticalAlign=top;shadow=0;dashed=0;strokeWidth=2;shape=mxgraph.ios7.misc.delete;fillColor=#ff0000;strokeColor=#ffffff;sketch=0;" vertex="1" parent="kUsobKeIjvPVuaiuKJYA-9">
          <mxGeometry x="610" y="35" width="20" height="20" as="geometry" />
        </mxCell>
        <mxCell id="kUsobKeIjvPVuaiuKJYA-16" value="" style="group" vertex="1" connectable="0" parent="1">
          <mxGeometry x="60" y="470" width="650" height="90" as="geometry" />
        </mxCell>
        <mxCell id="kUsobKeIjvPVuaiuKJYA-17" value="" style="rounded=0;whiteSpace=wrap;html=1;" vertex="1" parent="kUsobKeIjvPVuaiuKJYA-16">
          <mxGeometry width="650" height="90" as="geometry" />
        </mxCell>
        <mxCell id="kUsobKeIjvPVuaiuKJYA-18" value="#3" style="text;html=1;align=center;verticalAlign=middle;whiteSpace=wrap;rounded=0;" vertex="1" parent="kUsobKeIjvPVuaiuKJYA-16">
          <mxGeometry x="20" y="25" width="40" height="30" as="geometry" />
        </mxCell>
        <mxCell id="kUsobKeIjvPVuaiuKJYA-19" value="Desvio Condicional" style="text;html=1;align=left;verticalAlign=middle;whiteSpace=wrap;rounded=0;fontStyle=1" vertex="1" parent="kUsobKeIjvPVuaiuKJYA-16">
          <mxGeometry x="90" width="170" height="30" as="geometry" />
        </mxCell>
        <mxCell id="kUsobKeIjvPVuaiuKJYA-20" value="Lorem ipsum dolor sit amet, consectetur adipiscing elit. Quisque vel tellus et sapien volutpat gravida in eleifend erat. Cras posuere luctus justo quis porta. Praesent rutrum vestibulum commodo. Vivamus eget ornare lacus, nec iaculis quam. Nulla viverra sapien quis magna congue tempor..." style="text;html=1;align=left;verticalAlign=middle;whiteSpace=wrap;rounded=0;fontSize=10;" vertex="1" parent="kUsobKeIjvPVuaiuKJYA-16">
          <mxGeometry x="90" y="30" width="510" height="30" as="geometry" />
        </mxCell>
        <mxCell id="kUsobKeIjvPVuaiuKJYA-21" value="Por: Estevao Rada Oliveira" style="text;html=1;align=left;verticalAlign=middle;whiteSpace=wrap;rounded=0;fontSize=10;fontColor=#666666;" vertex="1" parent="kUsobKeIjvPVuaiuKJYA-16">
          <mxGeometry x="90" y="60" width="510" height="30" as="geometry" />
        </mxCell>
        <mxCell id="kUsobKeIjvPVuaiuKJYA-22" value="" style="html=1;verticalLabelPosition=bottom;labelBackgroundColor=#ffffff;verticalAlign=top;shadow=0;dashed=0;strokeWidth=2;shape=mxgraph.ios7.misc.delete;fillColor=#ff0000;strokeColor=#ffffff;sketch=0;" vertex="1" parent="kUsobKeIjvPVuaiuKJYA-16">
          <mxGeometry x="610" y="35" width="20" height="20" as="geometry" />
        </mxCell>
        <mxCell id="kUsobKeIjvPVuaiuKJYA-23" value="" style="group" vertex="1" connectable="0" parent="1">
          <mxGeometry x="60" y="560" width="650" height="90" as="geometry" />
        </mxCell>
        <mxCell id="kUsobKeIjvPVuaiuKJYA-24" value="" style="rounded=0;whiteSpace=wrap;html=1;" vertex="1" parent="kUsobKeIjvPVuaiuKJYA-23">
          <mxGeometry width="650" height="90" as="geometry" />
        </mxCell>
        <mxCell id="kUsobKeIjvPVuaiuKJYA-25" value="#4" style="text;html=1;align=center;verticalAlign=middle;whiteSpace=wrap;rounded=0;" vertex="1" parent="kUsobKeIjvPVuaiuKJYA-23">
          <mxGeometry x="20" y="25" width="40" height="30" as="geometry" />
        </mxCell>
        <mxCell id="kUsobKeIjvPVuaiuKJYA-26" value="Estrutura de Decisão" style="text;html=1;align=left;verticalAlign=middle;whiteSpace=wrap;rounded=0;fontStyle=1" vertex="1" parent="kUsobKeIjvPVuaiuKJYA-23">
          <mxGeometry x="90" width="170" height="30" as="geometry" />
        </mxCell>
        <mxCell id="kUsobKeIjvPVuaiuKJYA-27" value="Lorem ipsum dolor sit amet, consectetur adipiscing elit. Quisque vel tellus et sapien volutpat gravida in eleifend erat. Cras posuere luctus justo quis porta. Praesent rutrum vestibulum commodo. Vivamus eget ornare lacus, nec iaculis quam. Nulla viverra sapien quis magna congue tempor..." style="text;html=1;align=left;verticalAlign=middle;whiteSpace=wrap;rounded=0;fontSize=10;" vertex="1" parent="kUsobKeIjvPVuaiuKJYA-23">
          <mxGeometry x="90" y="30" width="510" height="30" as="geometry" />
        </mxCell>
        <mxCell id="kUsobKeIjvPVuaiuKJYA-28" value="Por: Paulo Sérgio de Sena" style="text;html=1;align=left;verticalAlign=middle;whiteSpace=wrap;rounded=0;fontSize=10;fontColor=#666666;" vertex="1" parent="kUsobKeIjvPVuaiuKJYA-23">
          <mxGeometry x="90" y="60" width="510" height="30" as="geometry" />
        </mxCell>
        <mxCell id="kUsobKeIjvPVuaiuKJYA-29" value="" style="html=1;verticalLabelPosition=bottom;labelBackgroundColor=#ffffff;verticalAlign=top;shadow=0;dashed=0;strokeWidth=2;shape=mxgraph.ios7.misc.delete;fillColor=#ff0000;strokeColor=#ffffff;sketch=0;" vertex="1" parent="kUsobKeIjvPVuaiuKJYA-23">
          <mxGeometry x="610" y="35" width="20" height="20" as="geometry" />
        </mxCell>
        <mxCell id="kUsobKeIjvPVuaiuKJYA-30" value="" style="group" vertex="1" connectable="0" parent="1">
          <mxGeometry x="60" y="650" width="650" height="90" as="geometry" />
        </mxCell>
        <mxCell id="kUsobKeIjvPVuaiuKJYA-31" value="" style="rounded=0;whiteSpace=wrap;html=1;" vertex="1" parent="kUsobKeIjvPVuaiuKJYA-30">
          <mxGeometry width="650" height="90" as="geometry" />
        </mxCell>
        <mxCell id="kUsobKeIjvPVuaiuKJYA-32" value="#5" style="text;html=1;align=center;verticalAlign=middle;whiteSpace=wrap;rounded=0;" vertex="1" parent="kUsobKeIjvPVuaiuKJYA-30">
          <mxGeometry x="20" y="25" width="40" height="30" as="geometry" />
        </mxCell>
        <mxCell id="kUsobKeIjvPVuaiuKJYA-33" value="Estruturas de Repetição" style="text;html=1;align=left;verticalAlign=middle;whiteSpace=wrap;rounded=0;fontStyle=1" vertex="1" parent="kUsobKeIjvPVuaiuKJYA-30">
          <mxGeometry x="90" width="170" height="30" as="geometry" />
        </mxCell>
        <mxCell id="kUsobKeIjvPVuaiuKJYA-34" value="Lorem ipsum dolor sit amet, consectetur adipiscing elit. Quisque vel tellus et sapien volutpat gravida in eleifend erat. Cras posuere luctus justo quis porta. Praesent rutrum vestibulum commodo. Vivamus eget ornare lacus, nec iaculis quam. Nulla viverra sapien quis magna congue tempor..." style="text;html=1;align=left;verticalAlign=middle;whiteSpace=wrap;rounded=0;fontSize=10;" vertex="1" parent="kUsobKeIjvPVuaiuKJYA-30">
          <mxGeometry x="90" y="30" width="510" height="30" as="geometry" />
        </mxCell>
        <mxCell id="kUsobKeIjvPVuaiuKJYA-35" value="Por: John Doe" style="text;html=1;align=left;verticalAlign=middle;whiteSpace=wrap;rounded=0;fontSize=10;fontColor=#666666;" vertex="1" parent="kUsobKeIjvPVuaiuKJYA-30">
          <mxGeometry x="90" y="60" width="510" height="30" as="geometry" />
        </mxCell>
        <mxCell id="kUsobKeIjvPVuaiuKJYA-36" value="" style="html=1;verticalLabelPosition=bottom;labelBackgroundColor=#ffffff;verticalAlign=top;shadow=0;dashed=0;strokeWidth=2;shape=mxgraph.ios7.misc.delete;fillColor=#ff0000;strokeColor=#ffffff;sketch=0;" vertex="1" parent="kUsobKeIjvPVuaiuKJYA-30">
          <mxGeometry x="610" y="35" width="20" height="20" as="geometry" />
        </mxCell>
        <mxCell id="kUsobKeIjvPVuaiuKJYA-37" value="" style="group" vertex="1" connectable="0" parent="1">
          <mxGeometry x="60" y="740" width="650" height="90" as="geometry" />
        </mxCell>
        <mxCell id="kUsobKeIjvPVuaiuKJYA-38" value="" style="rounded=0;whiteSpace=wrap;html=1;" vertex="1" parent="kUsobKeIjvPVuaiuKJYA-37">
          <mxGeometry width="650" height="90" as="geometry" />
        </mxCell>
        <mxCell id="kUsobKeIjvPVuaiuKJYA-39" value="#6" style="text;html=1;align=center;verticalAlign=middle;whiteSpace=wrap;rounded=0;" vertex="1" parent="kUsobKeIjvPVuaiuKJYA-37">
          <mxGeometry x="20" y="25" width="40" height="30" as="geometry" />
        </mxCell>
        <mxCell id="kUsobKeIjvPVuaiuKJYA-40" value="Funções" style="text;html=1;align=left;verticalAlign=middle;whiteSpace=wrap;rounded=0;fontStyle=1" vertex="1" parent="kUsobKeIjvPVuaiuKJYA-37">
          <mxGeometry x="90" width="170" height="30" as="geometry" />
        </mxCell>
        <mxCell id="kUsobKeIjvPVuaiuKJYA-41" value="Lorem ipsum dolor sit amet, consectetur adipiscing elit. Quisque vel tellus et sapien volutpat gravida in eleifend erat. Cras posuere luctus justo quis porta. Praesent rutrum vestibulum commodo. Vivamus eget ornare lacus, nec iaculis quam. Nulla viverra sapien quis magna congue tempor..." style="text;html=1;align=left;verticalAlign=middle;whiteSpace=wrap;rounded=0;fontSize=10;" vertex="1" parent="kUsobKeIjvPVuaiuKJYA-37">
          <mxGeometry x="90" y="30" width="510" height="30" as="geometry" />
        </mxCell>
        <mxCell id="kUsobKeIjvPVuaiuKJYA-42" value="Por: Paulo Sérgio de Sena" style="text;html=1;align=left;verticalAlign=middle;whiteSpace=wrap;rounded=0;fontSize=10;fontColor=#666666;" vertex="1" parent="kUsobKeIjvPVuaiuKJYA-37">
          <mxGeometry x="90" y="60" width="510" height="30" as="geometry" />
        </mxCell>
        <mxCell id="kUsobKeIjvPVuaiuKJYA-43" value="" style="html=1;verticalLabelPosition=bottom;labelBackgroundColor=#ffffff;verticalAlign=top;shadow=0;dashed=0;strokeWidth=2;shape=mxgraph.ios7.misc.delete;fillColor=#ff0000;strokeColor=#ffffff;sketch=0;" vertex="1" parent="kUsobKeIjvPVuaiuKJYA-37">
          <mxGeometry x="610" y="35" width="20" height="20" as="geometry" />
        </mxCell>
        <mxCell id="kUsobKeIjvPVuaiuKJYA-44" value="" style="group" vertex="1" connectable="0" parent="1">
          <mxGeometry x="60" y="830" width="650" height="90" as="geometry" />
        </mxCell>
        <mxCell id="kUsobKeIjvPVuaiuKJYA-45" value="" style="rounded=0;whiteSpace=wrap;html=1;" vertex="1" parent="kUsobKeIjvPVuaiuKJYA-44">
          <mxGeometry width="650" height="90" as="geometry" />
        </mxCell>
        <mxCell id="kUsobKeIjvPVuaiuKJYA-46" value="#7" style="text;html=1;align=center;verticalAlign=middle;whiteSpace=wrap;rounded=0;" vertex="1" parent="kUsobKeIjvPVuaiuKJYA-44">
          <mxGeometry x="20" y="25" width="40" height="30" as="geometry" />
        </mxCell>
        <mxCell id="kUsobKeIjvPVuaiuKJYA-47" value="Programação Orientada a Objetos" style="text;html=1;align=left;verticalAlign=middle;whiteSpace=wrap;rounded=0;fontStyle=1" vertex="1" parent="kUsobKeIjvPVuaiuKJYA-44">
          <mxGeometry x="90" width="220" height="30" as="geometry" />
        </mxCell>
        <mxCell id="kUsobKeIjvPVuaiuKJYA-48" value="Lorem ipsum dolor sit amet, consectetur adipiscing elit. Quisque vel tellus et sapien volutpat gravida in eleifend erat. Cras posuere luctus justo quis porta. Praesent rutrum vestibulum commodo. Vivamus eget ornare lacus, nec iaculis quam. Nulla viverra sapien quis magna congue tempor..." style="text;html=1;align=left;verticalAlign=middle;whiteSpace=wrap;rounded=0;fontSize=10;" vertex="1" parent="kUsobKeIjvPVuaiuKJYA-44">
          <mxGeometry x="90" y="30" width="510" height="30" as="geometry" />
        </mxCell>
        <mxCell id="kUsobKeIjvPVuaiuKJYA-49" value="Por: Estevao Rada Oliveira" style="text;html=1;align=left;verticalAlign=middle;whiteSpace=wrap;rounded=0;fontSize=10;fontColor=#666666;" vertex="1" parent="kUsobKeIjvPVuaiuKJYA-44">
          <mxGeometry x="90" y="60" width="510" height="30" as="geometry" />
        </mxCell>
        <mxCell id="kUsobKeIjvPVuaiuKJYA-50" value="" style="html=1;verticalLabelPosition=bottom;labelBackgroundColor=#ffffff;verticalAlign=top;shadow=0;dashed=0;strokeWidth=2;shape=mxgraph.ios7.misc.delete;fillColor=#ff0000;strokeColor=#ffffff;sketch=0;" vertex="1" parent="kUsobKeIjvPVuaiuKJYA-44">
          <mxGeometry x="610" y="35" width="20" height="20" as="geometry" />
        </mxCell>
        <mxCell id="kUsobKeIjvPVuaiuKJYA-51" value="Finalizar" style="rounded=1;whiteSpace=wrap;html=1;fillColor=light-dark(#8b8989, #ededed);" vertex="1" parent="1">
          <mxGeometry x="500" y="980" width="210" height="50" as="geometry" />
        </mxCell>
        <mxCell id="kUsobKeIjvPVuaiuKJYA-52" value="Ao clicar em finalizar, as aulas selecionadas serão adicionais à um plano de aula e vinculadas à sua conta." style="text;html=1;align=right;verticalAlign=middle;whiteSpace=wrap;rounded=0;fontSize=11;" vertex="1" parent="1">
          <mxGeometry x="180" y="985" width="310" height="40" as="geometry" />
        </mxCell>
        <mxCell id="kUsobKeIjvPVuaiuKJYA-53" value="&lt;font style=&quot;font-size: 9px;&quot;&gt;Ex.: Introdução à logica de programação (Informática)...&lt;/font&gt;" style="rounded=1;whiteSpace=wrap;html=1;fontStyle=2;fontColor=#999999;" vertex="1" parent="1">
          <mxGeometry x="470" y="930" width="240" height="25" as="geometry" />
        </mxCell>
        <mxCell id="kUsobKeIjvPVuaiuKJYA-54" value="Título do Plano de Aula:" style="text;html=1;align=right;verticalAlign=middle;whiteSpace=wrap;rounded=0;" vertex="1" parent="1">
          <mxGeometry x="310" y="927.5" width="150" height="30" as="geometry" />
        </mxCell>
        <mxCell id="kUsobKeIjvPVuaiuKJYA-55" value="Buscar mais aulas" style="rounded=1;whiteSpace=wrap;html=1;fillColor=light-dark(#8b8989, #ededed);" vertex="1" parent="1">
          <mxGeometry x="470" y="227.5" width="150" height="22.5" as="geometry" />
        </mxCell>
        <mxCell id="kUsobKeIjvPVuaiuKJYA-57" value="+ Criar Aula" style="rounded=1;whiteSpace=wrap;html=1;fillColor=light-dark(#8b8989, #ededed);" vertex="1" parent="1">
          <mxGeometry x="630" y="227.5" width="80" height="22.5" as="geometry" />
        </mxCell>
      </root>
    </mxGraphModel>
  </diagram>
</mxfile>
